<?xml version="1.0" standalone="no"?>
<!DOCTYPE svg PUBLIC "-//W3C//DTD SVG 20010904//EN"
 "http://www.w3.org/TR/2001/REC-SVG-20010904/DTD/svg10.dtd">
<svg version="1.0" xmlns="http://www.w3.org/2000/svg"
 width="512.000000pt" height="512.000000pt" viewBox="0 0 512.000000 512.000000"
 preserveAspectRatio="xMidYMid meet">
<metadata>
Created by potrace 1.11, written by Peter Selinger 2001-2013
</metadata>
<g transform="translate(0.000000,512.000000) scale(0.100000,-0.100000)"
fill="#000000" stroke="none">
<path d="M2409 3966 c-2 -2 -31 -6 -64 -9 -87 -7 -257 -52 -355 -94 -187 -80
-306 -160 -445 -298 -107 -106 -128 -130 -171 -195 -15 -22 -33 -41 -40 -41
-26 -3 -43 -10 -142 -56 -211 -99 -401 -282 -505 -488 -57 -111 -85 -191 -112
-320 -11 -49 -14 -312 -4 -355 5 -22 12 -56 15 -76 9 -59 54 -183 94 -264 84
-166 216 -316 369 -419 149 -101 353 -174 524 -187 122 -10 1062 -10 1132 -1
75 11 161 30 245 57 78 24 81 25 193 78 48 23 92 42 98 42 6 0 32 -15 58 -34
134 -98 305 -147 485 -141 118 5 137 8 234 41 255 88 449 301 517 567 19 76
23 113 20 207 -3 133 -6 149 -41 247 -40 112 -69 163 -143 253 -104 125 -242
215 -391 257 -57 16 -59 17 -65 57 -10 59 -46 209 -54 221 -4 6 -13 28 -20 50
-18 52 -84 186 -124 250 -62 99 -180 235 -283 324 -89 77 -307 207 -396 236
-12 4 -25 8 -28 9 -34 14 -147 46 -190 55 -30 6 -68 13 -85 17 -37 7 -319 16
-326 10z"/>
</g>
</svg>
