<svg
  xmlns="http://www.w3.org/2000/svg"
  xmlns:xlink="http://www.w3.org/1999/xlink"
  viewBox="0 0 172.068 58.993"
>
  <defs>
    <linearGradient
      id="linear-gradient"
      x1="0.799"
      y1="-0.245"
      x2="0.518"
      y2="0.519"
      gradientUnits="objectBoundingBox"
    >
      <stop offset="0" stop-color="#fff"></stop>
      <stop offset="0.999" stop-color="#fff" stop-opacity="0"></stop>
    </linearGradient>
  </defs>
  <g id="spot-netapp-logo" transform="translate(-122.131 -39.662)">
    <g id="symbol">
      <path
        id="Path_685"
        data-name="Path 685"
        d="M175.832,59.178c-.086-.049-.17-.1-.257-.149a11.929,11.929,0,0,0-3.185-1.153c.058.43.108.863.139,1.3.023.312.041.625.05.942.005.2.008.394.008.592a21.034,21.034,0,0,1-10.372,18.14c.294.246.6.482.912.7.153.1.313.2.471.3a12.013,12.013,0,1,0,12.234-20.672"
        fill="#ff00ce"
      ></path>
      <path
        id="Path_686"
        data-name="Path 686"
        d="M169.92,57.616a12.041,12.041,0,0,1,2.47.26,21.046,21.046,0,0,0-38.429-8.748A16.641,16.641,0,0,0,138.755,81.7c.6,0,11.824.092,12.783.092a20.989,20.989,0,0,0,8.757-1.942c.145-.067.293-.128.436-.2.507-.246,1-.515,1.484-.8a12.014,12.014,0,0,1,7.705-21.236Z"
        fill="#0086ff"
      ></path>
      <path
        id="Path_687"
        data-name="Path 687"
        d="M172.587,60.712c0-.2,0-.4-.008-.592-.009-.317-.027-.63-.05-.942-.031-.439-.081-.872-.139-1.3a12.013,12.013,0,0,0-10.175,20.976,21.034,21.034,0,0,0,10.372-18.14"
        fill="#1e1e9a"
      ></path>
      <path
        id="Path_692"
        data-name="Path 692"
        d="M151.437,81.689a21.044,21.044,0,0,0,8.818-1.781c.145-.067.41-.212.553-.282.507-.248,1.027-.561,1.511-.847A20.516,20.516,0,0,0,172.6,60.886c0-.2,0-.4-.008-.6-.009-.318-.027-.633-.05-.947-.031-.441-.081-.876-.139-1.309a21.016,21.016,0,0,0-38.432-8.8,16.707,16.707,0,0,0-11.835,16.006A16.5,16.5,0,0,0,138.914,81.6"
        opacity="0.54"
        fill="url(#linear-gradient)"
        style="mix-blend-mode: overlay; isolation: isolate;"
      ></path>
    </g>
    <g id="spot">
      <path
        id="Path_688"
        data-name="Path 688"
        d="M270.79,48.372v5.937H279.3V75.957h6.358V54.309H294.2V48.372Z"
        fill="#1e1e9a"
      ></path>
      <path
        id="Path_689"
        data-name="Path 689"
        d="M203.036,59.928,200.5,58.9a9.731,9.731,0,0,1-2.656-1.389,1.931,1.931,0,0,1-.709-1.54c0-1.565,1.112-2.325,3.4-2.325a8.109,8.109,0,0,1,6.037,2.626l.153.159,3.323-3.791-.112-.133a11.59,11.59,0,0,0-9.294-4.158,10.8,10.8,0,0,0-6.79,2.085,6.913,6.913,0,0,0-2.713,5.752,6.379,6.379,0,0,0,1.751,4.657,16.019,16.019,0,0,0,5.255,3.217l2.688,1.129a14.6,14.6,0,0,1,2.782,1.429,1.92,1.92,0,0,1,.8,1.664,2.228,2.228,0,0,1-1.114,2.033,5.484,5.484,0,0,1-2.93.722c-2.476,0-4.924-1.245-7.274-3.7l-.15-.157-3.485,3.834.1.134a12.958,12.958,0,0,0,10.806,5.187,11.465,11.465,0,0,0,7.111-2.165,7.254,7.254,0,0,0,2.876-6.1,6.606,6.606,0,0,0-1.777-4.737A16.434,16.434,0,0,0,203.036,59.928Z"
        fill="#1e1e9a"
      ></path>
      <path
        id="Path_690"
        data-name="Path 690"
        d="M227.838,48.354a12.445,12.445,0,0,0-5.41,1.176,10.216,10.216,0,0,0-3.582,2.78V48.945h-5.673v36.48h6.05V72.907a11.234,11.234,0,0,0,8.615,3.432,12.4,12.4,0,0,0,9.449-3.989A14.2,14.2,0,0,0,241,62.32a14.132,14.132,0,0,0-3.71-9.977A12.4,12.4,0,0,0,227.838,48.354Zm4.692,20.063a7.472,7.472,0,0,1-5.606,2.356,7.689,7.689,0,0,1-5.479-2.175,6.853,6.853,0,0,1-1.711-2.674V58.688a6.616,6.616,0,0,1,1.71-2.645,7.791,7.791,0,0,1,5.48-2.123,7.468,7.468,0,0,1,5.606,2.357,9.294,9.294,0,0,1,0,12.14Z"
        fill="#1e1e9a"
      ></path>
      <path
        id="Path_691"
        data-name="Path 691"
        d="M256.874,48.354a13.794,13.794,0,0,0-10.034,4.037,14.09,14.09,0,0,0,0,19.858,14.42,14.42,0,0,0,20.1.027,13.929,13.929,0,0,0,0-19.886A14,14,0,0,0,256.874,48.354Zm5.715,19.981a7.661,7.661,0,0,1-5.715,2.385,7.553,7.553,0,0,1-5.713-2.383,9.038,9.038,0,0,1,.026-11.98,7.917,7.917,0,0,1,11.428,0,8.392,8.392,0,0,1,2.283,6.016A8.27,8.27,0,0,1,262.589,68.335Z"
        fill="#1e1e9a"
      ></path>
    </g>
    <g id="by">
      <path
        id="Path_695"
        data-name="Path 695"
        d="M217.733,93.126a3.027,3.027,0,0,1-.16,1.019,2.19,2.19,0,0,1-.434.748,1.8,1.8,0,0,1-.642.458,1.968,1.968,0,0,1-.777.156,1.661,1.661,0,0,1-.965-.274,1.815,1.815,0,0,1-.622-.741v.958h-.982V88.937h.99v2.905a1.681,1.681,0,0,1,.675-.774,1.894,1.894,0,0,1,.977-.257,2,2,0,0,1,.745.139,1.706,1.706,0,0,1,.618.421,2.026,2.026,0,0,1,.421.724A3.1,3.1,0,0,1,217.733,93.126Zm-2.316,1.563a1.166,1.166,0,0,0,.982-.422,1.769,1.769,0,0,0,.327-1.116,1.739,1.739,0,0,0-.339-1.134,1.2,1.2,0,0,0-.986-.413,1.376,1.376,0,0,0-.589.119,1.161,1.161,0,0,0-.422.327,1.391,1.391,0,0,0-.249.495,2.211,2.211,0,0,0-.082.614,1.786,1.786,0,0,0,.323,1.1A1.208,1.208,0,0,0,215.417,94.689Z"
        fill="#3d3d3d"
      ></path>
      <path
        id="Path_696"
        data-name="Path 696"
        d="M222.886,90.868l-2.7,6.349h-1.031l.81-1.841-1.915-4.508h1.023l1.219,2.945.188.606.205-.606,1.194-2.945Z"
        fill="#3d3d3d"
      ></path>
    </g>
    <g id="netapp">
      <path
        id="Path_697"
        data-name="Path 697"
        d="M228.269,87.666v7.627h-2.834V83.93h3.58l3.752,7.565.295.887L233,91.246V83.93h2.832V95.293h-3.424L228.5,87.37l-.358-.934Z"
        fill="#3d3d3d"
      ></path>
      <path
        id="Path_698"
        data-name="Path 698"
        d="M246.34,93.02a4.475,4.475,0,0,1-1.588,1.752,4.9,4.9,0,0,1-2.708.677,5.791,5.791,0,0,1-2.063-.335,4.042,4.042,0,0,1-1.463-.926,3.737,3.737,0,0,1-.871-1.409,5.25,5.25,0,0,1-.288-1.766,5,5,0,0,1,.319-1.791,4.252,4.252,0,0,1,.918-1.463,4.311,4.311,0,0,1,1.486-.988,5.228,5.228,0,0,1,2.009-.366,5.118,5.118,0,0,1,2,.358,4.019,4.019,0,0,1,1.393.942,3.725,3.725,0,0,1,.809,1.362,4.978,4.978,0,0,1,.265,1.619v.84h-6.507a2.008,2.008,0,0,0,.623,1.308,2.073,2.073,0,0,0,1.417.451,2.011,2.011,0,0,0,1.1-.272,2.114,2.114,0,0,0,.716-.9Zm-4.312-4.56a1.916,1.916,0,0,0-1.308.436,2.056,2.056,0,0,0-.638,1.245h3.736a1.912,1.912,0,0,0-.474-1.214A1.7,1.7,0,0,0,242.028,88.46Z"
        fill="#3d3d3d"
      ></path>
      <path
        id="Path_699"
        data-name="Path 699"
        d="M253.874,92.927v2.055a3.386,3.386,0,0,1-.817.334,3.881,3.881,0,0,1-1.051.133,2.82,2.82,0,0,1-2.3-.779,3.512,3.512,0,0,1-.63-2.257V88.771h-1.868v-2.2h1.9V84.428l2.6-1.245v3.393h2.164v2.2H251.71v3.207a1.283,1.283,0,0,0,.273.926,1.11,1.11,0,0,0,.817.272,2.037,2.037,0,0,0,.568-.07A5.005,5.005,0,0,0,253.874,92.927Z"
        fill="#3d3d3d"
      ></path>
      <path
        id="Path_700"
        data-name="Path 700"
        d="M254.5,95.293l4.265-11.363h3.222l4.281,11.363H263.26l-.685-1.977h-4.389l-.685,1.977Zm5.635-7.627-1.261,3.658h3l-1.292-3.658-.233-.888Z"
        fill="#3d3d3d"
      ></path>
      <path
        id="Path_701"
        data-name="Path 701"
        d="M276.522,90.872a6.161,6.161,0,0,1-.28,1.938,4.132,4.132,0,0,1-.77,1.417,3.216,3.216,0,0,1-1.176.864,3.727,3.727,0,0,1-1.494.295,2.681,2.681,0,0,1-1.736-.521,3.311,3.311,0,0,1-.988-1.378v5.168h-2.817V86.576h2.8v1.868a3.051,3.051,0,0,1,1.129-1.471,3.179,3.179,0,0,1,1.8-.49,3.666,3.666,0,0,1,1.408.265,2.918,2.918,0,0,1,1.113.8,3.914,3.914,0,0,1,.74,1.37A6.313,6.313,0,0,1,276.522,90.872Zm-4.732,2.366a1.623,1.623,0,0,0,1.432-.622,2.878,2.878,0,0,0,.436-1.681,3.056,3.056,0,0,0-.428-1.728,1.909,1.909,0,0,0-2.856.008,2.946,2.946,0,0,0-.452,1.72,2.834,2.834,0,0,0,.413,1.688A1.644,1.644,0,0,0,271.79,93.238Z"
        fill="#3d3d3d"
      ></path>
      <path
        id="Path_702"
        data-name="Path 702"
        d="M287.278,90.872A6.16,6.16,0,0,1,287,92.81a4.132,4.132,0,0,1-.77,1.417,3.216,3.216,0,0,1-1.176.864,3.734,3.734,0,0,1-1.494.295,2.682,2.682,0,0,1-1.736-.521,3.311,3.311,0,0,1-.988-1.378v5.168h-2.817V86.576h2.8v1.868a3.051,3.051,0,0,1,1.129-1.471,3.179,3.179,0,0,1,1.8-.49,3.666,3.666,0,0,1,1.408.265,2.918,2.918,0,0,1,1.113.8,3.913,3.913,0,0,1,.74,1.37A6.313,6.313,0,0,1,287.278,90.872Zm-4.732,2.366a1.625,1.625,0,0,0,1.432-.622,2.878,2.878,0,0,0,.436-1.681,3.064,3.064,0,0,0-.428-1.728,1.909,1.909,0,0,0-2.856.008,2.946,2.946,0,0,0-.452,1.72,2.834,2.834,0,0,0,.413,1.688A1.643,1.643,0,0,0,282.546,93.238Z"
        fill="#3d3d3d"
      ></path>
    </g>
  </g>
</svg>
